<svg width="1280" height="205" viewBox="0 0 1280 205" fill="none" xmlns="http://www.w3.org/2000/svg">
<path d="M1.52588e-05 49.4453C1.52588e-05 44.165 4.10542 39.7946 9.37543 39.4648L640 0L1270.62 39.4648C1275.89 39.7946 1280 44.165 1280 49.4453V195C1280 200.523 1275.52 205 1270 205H640H10C4.47717 205 1.52588e-05 200.523 1.52588e-05 195V49.4453Z" fill="#0A0A0B"/>
<mask id="mask0_4_20" style="mask-type:alpha" maskUnits="userSpaceOnUse" x="0" y="0" width="1280" height="205">
<path d="M0 49.4453C0 44.165 4.1054 39.7946 9.37542 39.4648L640 0L1270.62 39.4648C1275.89 39.7946 1280 44.165 1280 49.4453V195C1280 200.523 1275.52 205 1270 205H640H10C4.47715 205 0 200.523 0 195V49.4453Z" fill="#0A0A0B"/>
</mask>
<g mask="url(#mask0_4_20)">
<rect x="-3.02138" y="1.96532" width="99.6115" height="82.1515" transform="matrix(-0.982185 -0.187915 -0.226366 0.974042 1255.93 17.1413)" stroke="#29292A" stroke-width="5"/>
<rect x="-1.38931" y="3.12383" width="97.672" height="82.9391" transform="matrix(-0.944595 0.328239 0.388873 0.921292 137.067 -2.25113)" stroke="#29292A" stroke-width="5"/>
<rect x="-3.62499" y="0.696374" width="78.669" height="68.4865" transform="matrix(-0.85225 -0.523135 -0.597747 0.801685 536.819 7.01197)" stroke="#29292A" stroke-width="5"/>
<rect x="-3.00905" y="1.98105" width="112.007" height="92.4359" transform="matrix(-0.983119 -0.182967 -0.2205 0.975387 266.986 181.906)" stroke="#29292A" stroke-width="5"/>
<rect x="-3.00905" y="1.98105" width="52.7944" height="43.1277" transform="matrix(-0.983119 -0.182967 -0.2205 0.975387 690.9 66.0727)" stroke="#29292A" stroke-width="5"/>
<rect x="-1.38931" y="3.12383" width="61.6456" height="51.4547" transform="matrix(-0.944595 0.328239 0.388873 0.921292 932.037 -21.2981)" stroke="#29292A" stroke-width="5"/>
<rect x="-1.38931" y="3.12383" width="61.6456" height="51.4547" transform="matrix(-0.944595 0.328239 0.388873 0.921292 1097.79 149.572)" stroke="#29292A" stroke-width="5"/>
<rect x="-1.38931" y="3.12383" width="33.2813" height="27.4276" transform="matrix(-0.944595 0.328239 0.388873 0.921292 341.35 96.1239)" stroke="#29292A" stroke-width="5"/>
<rect x="-1.38931" y="3.12383" width="17.4878" height="14.0492" transform="matrix(-0.944595 0.328239 0.388873 0.921292 799.876 92.2509)" stroke="#29292A" stroke-width="5"/>
<rect x="-1.38931" y="3.12383" width="17.4878" height="14.0492" transform="matrix(-0.944595 0.328239 0.388873 0.921292 546.325 180.702)" stroke="#29292A" stroke-width="5"/>
<rect x="-1.38931" y="3.12383" width="33.2813" height="27.4276" transform="matrix(-0.944595 0.328239 0.388873 0.921292 926.146 151.896)" stroke="#29292A" stroke-width="5"/>
</g>
</svg>
